<?xml version="1.0" encoding="UTF-8" standalone="no"?>
<!-- Created with Inkscape (http://www.inkscape.org/) -->

<svg
   width="210mm"
   height="297mm"
   viewBox="0 0 210 297"
   version="1.1"
   id="svg2821"
   xmlns:inkscape="http://www.inkscape.org/namespaces/inkscape"
   xmlns:sodipodi="http://sodipodi.sourceforge.net/DTD/sodipodi-0.dtd"
   xmlns="http://www.w3.org/2000/svg"
   xmlns:svg="http://www.w3.org/2000/svg">
  <sodipodi:namedview
     id="namedview2823"
     pagecolor="#ffffff"
     bordercolor="#000000"
     borderopacity="0.25"
     inkscape:showpageshadow="2"
     inkscape:pageopacity="0.0"
     inkscape:pagecheckerboard="0"
     inkscape:deskcolor="#d1d1d1"
     inkscape:document-units="mm"
     showgrid="false" />
  <defs
     id="defs2818" />
  <g
     inkscape:label="Capa 1"
     inkscape:groupmode="layer"
     id="layer1">
    <path
       d="m 185.64455,119.98087 -43.73725,12.70875 c 0,0 2.57381,-17.71519 -1.21791,-29.1403 l 29.65336,-21.694439 c 0,-0.384851 -0.13357,-0.641853 -0.67574,-0.769714 -1.21792,-0.257015 -2.43658,0.127885 -3.65475,0.384863 h -0.27107 l -34.25873,14.634184 c 0,0 -20.44953,-5.648274 -27.75919,14.634226 L 54.162483,88.787106 c 0,0 2.979128,37.355894 23.290411,59.563934 0,0 -25.863202,27.72798 -32.227573,62.25974 l 56.195299,38.76783 c 0,0 -5.415189,-34.27498 -4.334243,-52.63182 0,-0.25702 59.039173,8.47229 88.558823,-76.76568 z"
       fill="#8b2136"
       id="path104"
       style="stroke-width:3.34131" />
    <path
       d="m 102.36708,117.92741 -5.010277,22.97816 -11.914882,3.97949 c 0,0 -14.895018,-17.58672 -20.717639,-42.10547 z"
       fill="#ba9156"
       id="path106"
       style="stroke-width:3.34131" />
    <path
       d="m 84.764499,152.84402 c 0,0 13.405642,21.95107 32.091261,33.24792 0,0 -19.498957,9.49938 -31.414224,-5.26318 -0.135004,0 -8.530535,-6.16192 -0.677037,-27.98474 z"
       fill="#ba9156"
       id="path108"
       style="stroke-width:3.34131" />
    <path
       d="m 118.34866,110.99494 c 0.53825,-3.08088 3.65473,-5.1347 6.90456,-4.62133 3.24982,0.51397 5.4152,3.46612 4.87306,6.54699 -0.53825,3.08091 -3.65473,5.1347 -6.90458,4.62133 -3.24983,-0.51397 -5.41534,-3.46611 -4.87304,-6.54699 z"
       fill="#ffffff"
       id="path110"
       style="stroke-width:3.34131" />
    <path
       d="m 107.10629,143.85737 28.70977,-5.77666 c 0,0 0.94683,27.34285 -12.3233,42.10545 l -17.06249,-10.26938 z"
       fill="#dac4a3"
       id="path112"
       style="stroke-width:3.34131" />
    <path
       d="m 70.411742,170.17413 c 0,0 1.217911,16.55963 17.061445,23.74814 l 1.489647,36.71401 -34.123173,-24.64709 c 0,0 5.551784,-21.95107 15.572081,-35.81506 z"
       fill="#dac4a3"
       id="path114"
       style="stroke-width:3.34131" />
    <path
       d="m 54.568844,145.52629 c -0.136326,0 -0.136326,-0.12788 0,0 l -0.136326,-3.20913 v -0.12906 c 1.083001,-13.47876 -8.936893,-24.26188 -19.092666,-25.03198 -7.989388,-0.64184 -11.37443,-1.54044 -12.322269,-1.92566 l -0.270817,-0.1279 0.135203,0.1279 h -0.135203 l 0.270817,0.1279 c 0.406362,0.89882 1.760111,3.85122 3.249834,11.42493 1.218568,6.16179 6.770418,11.81021 14.353469,14.37772 H 26.402623 c 0.271088,-10.26972 -7.447485,-18.22869 -15.165764,-18.87053 -6.3641195,-0.51277 -9.0724252,-1.28372 -9.7494997,-1.54046 l -0.1351597,-0.12907 v 0.12907 H 1.2166559 l 0.1355437,0.12789 c 0.2708198,0.64187 1.3538231,3.0809 2.5727675,9.1144 1.4893609,7.44562 10.9681109,13.99225 21.9362039,12.45182 v 3.08088 c -10.968093,-1.66868 -20.446843,5.00657 -21.9362039,12.45203 -1.2189444,6.0333 -2.166786,8.47234 -2.5727675,9.11417 l -0.1355437,0.12908 h 0.1355437 v 0.12788 l 0.1351597,-0.12788 c 0.8125886,-0.257 3.3853802,-1.02674 9.7494997,-1.54046 7.989388,-0.64186 15.842854,-8.85743 15.165764,-19.3839 H 42.11027 c -8.395346,2.31051 -14.488697,8.34418 -15.842853,14.89105 -1.489723,7.57374 -2.843517,10.52613 -3.249834,11.42474 l -0.270817,0.12789 h 0.135203 c 0,0.12788 -0.135203,0.12788 -0.135203,0.12788 l 0.270817,-0.12788 c 0.947862,-0.25699 4.332881,-1.15583 12.322269,-1.92568 10.155773,-1.02673 20.176069,-11.68158 19.228208,-25.28896 z"
       fill="#ba9156"
       id="path116"
       style="stroke-width:3.34131" />
    <path
       d="m 207.9595,220.24508 c -0.27109,-0.64187 -1.21792,-2.82429 -2.30263,-8.34421 -1.35213,-6.80362 -10.02055,-12.96538 -20.17507,-11.42498 v -2.95276 c 10.15452,1.54046 18.82294,-4.49282 20.17507,-11.42493 1.08434,-5.51993 2.03154,-7.70223 2.30263,-8.34382 l 0.13358,-0.12789 h -0.13358 v -0.1279 l -0.13358,0.1279 c -0.67966,0.25698 -3.1161,0.89883 -9.07349,1.41193 -7.17579,0.64187 -14.35482,7.95922 -14.08375,17.45861 h -13.13315 c 6.90457,-2.43904 12.0521,-7.57395 13.13315,-13.22212 1.35551,-6.93213 2.57382,-9.75638 2.97875,-10.52639 l 0.13769,-0.12905 h -0.13769 c 0,-0.12791 0.13769,-0.12791 0.13769,-0.12791 l -0.27107,0.12791 c -0.81324,0.25699 -3.92935,1.15583 -11.37621,1.66892 -9.34105,0.76974 -18.55174,10.65463 -17.60116,23.10667 v 2.95239 c -0.95072,12.45205 8.26011,22.33666 17.60116,23.10665 7.44686,0.64185 10.429,1.41231 11.37621,1.66892 l 0.27107,0.12791 -0.13769,-0.12791 h 0.13769 l -0.13769,-0.12788 c -0.40466,-0.76974 -1.62324,-3.59423 -2.97875,-10.52637 -1.2179,-6.03329 -6.9046,-11.55319 -14.62253,-13.7355 h 14.48867 c -0.54216,9.62776 6.63352,17.32999 13.94651,17.84346 6.36232,0.76973 8.80229,1.54044 9.47831,1.66895 l 0.13358,0.25699 c 0,-0.0861 -0.0388,-0.1708 -0.13358,-0.25699 z"
       fill="#ba9156"
       id="path132"
       style="stroke-width:3.34131" />
  </g>
</svg>
